<?xml version="1.0" encoding="UTF-8"?>
<svg width="21px" height="26px" viewBox="0 0 21 26" version="1.1" xmlns="http://www.w3.org/2000/svg" xmlns:xlink="http://www.w3.org/1999/xlink">
    <!-- Generator: Sketch 63.1 (92452) - https://sketch.com -->
    <title>images_new-files-svg_Delete</title>
    <desc>Created with Sketch.</desc>
    <g id="Setup-screens" stroke="none" stroke-width="1" fill="none" fill-rule="evenodd">
        <g id="Recipe" transform="translate(-911.000000, -154.000000)" fill="#FFFFFF" fill-rule="nonzero">
            <g id="images_new-files-svg_Delete" transform="translate(911.000000, 154.000000)">
                <path d="M20.840625,1.54375 L11.740625,1.54375 L11.740625,1.178125 C11.740625,0.528125 11.2125,0 10.5625,0 C9.9125,0 9.384375,0.528125 9.384375,1.178125 L9.384375,1.54375 L0.284375,1.54375 L0.284375,5.890625 L1.38125,5.890625 L3.16875,24.496875 C3.16875,25.10625 3.98125,25.91875 4.590625,25.91875 L16.81875,25.91875 C17.428125,25.91875 18.240625,25.10625 18.240625,24.5375 L19.703125,5.93125 L20.8,5.93125 L20.8,1.54375 L20.840625,1.54375 Z M17.46875,24.496875 C17.46875,24.7 17.021875,25.10625 16.859375,25.10625 L4.63125,25.10625 C4.428125,25.10625 4.021875,24.659375 4.021875,24.45625 L2.275,6.459375 L18.890625,6.459375 L17.46875,24.496875 Z M20.028125,5.11875 L1.096875,5.11875 L1.096875,2.35625 L10.196875,2.35625 L10.196875,1.178125 C10.196875,0.975 10.359375,0.8125 10.5625,0.8125 C10.765625,0.8125 10.928125,0.975 10.928125,1.178125 L10.928125,2.35625 L20.028125,2.35625 L20.028125,5.11875 Z" id="Shape"></path>
                <path d="M6.053125,21.85625 C6.175,23.034375 6.621875,24.2125 7.3125,24.2125 C7.353125,24.2125 7.353125,24.2125 7.39375,24.2125 C7.6375,24.171875 8.003125,24.009375 8.165625,23.2375 C8.246875,22.790625 8.2875,22.221875 8.20625,21.653125 L7.06875,10.846875 C6.9875,10.278125 6.865625,9.709375 6.703125,9.303125 C6.378125,8.6125 6.0125,8.490625 5.728125,8.53125 C5.484375,8.571875 5.11875,8.734375 4.95625,9.50625 C4.875,9.953125 4.834375,10.521875 4.915625,11.090625 L6.053125,21.85625 Z M5.85,9.384375 C6.0125,9.5875 6.215625,10.115625 6.296875,10.928125 L7.434375,21.734375 C7.515625,22.50625 7.434375,23.075 7.3125,23.31875 C7.15,23.115625 6.946875,22.5875 6.865625,21.775 L5.728125,10.96875 C5.646875,10.196875 5.728125,9.628125 5.85,9.384375 Z" id="Shape"></path>
                <path d="M13.89375,24.2125 C13.934375,24.2125 13.934375,24.2125 13.975,24.2125 C14.665625,24.2125 15.1125,23.034375 15.234375,21.85625 L16.371875,11.05 C16.453125,10.48125 16.4125,9.9125 16.33125,9.465625 C16.16875,8.734375 15.803125,8.53125 15.559375,8.490625 C15.315625,8.45 14.909375,8.571875 14.584375,9.2625 C14.38125,9.66875 14.259375,10.2375 14.21875,10.80625 L13.08125,21.6125 C13,22.18125 13.040625,22.75 13.121875,23.196875 C13.325,23.96875 13.65,24.171875 13.89375,24.2125 Z M13.89375,21.734375 L15.03125,10.928125 C15.1125,10.15625 15.315625,9.628125 15.478125,9.384375 C15.559375,9.628125 15.68125,10.196875 15.6,10.96875 L14.4625,21.775 C14.38125,22.546875 14.178125,23.075 14.015625,23.31875 C13.89375,23.075 13.8125,22.50625 13.89375,21.734375 Z" id="Shape"></path>
                <path d="M10.5625,23.96875 C11.375,23.96875 11.740625,22.709375 11.740625,21.53125 L11.740625,10.8875 C11.740625,9.709375 11.375,8.45 10.5625,8.45 C9.75,8.45 9.384375,9.709375 9.384375,10.8875 L9.384375,21.53125 C9.384375,22.709375 9.75,23.96875 10.5625,23.96875 Z M10.196875,10.8875 C10.196875,9.99375 10.4,9.465625 10.5625,9.303125 C10.684375,9.465625 10.928125,9.99375 10.928125,10.8875 L10.928125,21.53125 C10.928125,22.425 10.725,22.953125 10.5625,23.115625 C10.440625,22.953125 10.196875,22.425 10.196875,21.53125 L10.196875,10.8875 Z" id="Shape"></path>
            </g>
        </g>
    </g>
</svg>