<?xml version="1.0" encoding="UTF-8"?>
<svg width="14px" height="14px" viewBox="0 0 14 14" version="1.1" xmlns="http://www.w3.org/2000/svg" xmlns:xlink="http://www.w3.org/1999/xlink">
    <!-- Generator: Sketch 55.2 (78181) - https://sketchapp.com -->
    <title>close</title>
    <desc>Created with Sketch.</desc>
    <g id="Setup-screens" stroke="none" stroke-width="1" fill="none" fill-rule="evenodd">
        <g id="Setup_Security_Master-Password" transform="translate(-977.000000, -295.000000)" fill="#231F20" fill-rule="nonzero">
            <g id="Group-16" transform="translate(489.000000, 285.000000)">
                <g id="Group-15">
                    <g id="close" transform="translate(487.000000, 10.000000)">
                        <g id="icon">
                            <path d="M8,8.00001703 C7.59373493,8.00236262 7.22641996,7.75869622 7.07062905,7.38348151 C6.91483814,7.00826679 7.00154005,6.57609046 7.29,6.29 L13.29,0.29 C13.6867603,-0.0497767959 14.2781942,-0.0269322697 14.6475632,0.342436779 C15.0169323,0.711805828 15.0397768,1.30323972 14.7,1.7 L8.7,7.7 C8.51536954,7.88841426 8.26376927,7.99624295 8,8.00001703 Z" id="Path"></path>
                            <path d="M2,14.000017 C1.59373493,14.0023626 1.22641996,13.7586962 1.07062905,13.3834815 C0.914838144,13.0082668 1.00154005,12.5760905 1.29,12.29 L7.29,6.29 C7.68676028,5.9502232 8.27819417,5.97306773 8.64756322,6.34243678 C9.01693227,6.71180583 9.0397768,7.30323972 8.7,7.7 L2.7,13.7 C2.51536954,13.8884143 2.26376927,13.996243 2,14.000017 Z" id="Path"></path>
                            <path d="M8,8.00001674 C7.73419702,8.00153676 7.47871883,7.89718651 7.29,7.71 L1.29,1.71 C0.950223204,1.31323972 0.97306773,0.721805828 1.34243678,0.352436779 C1.71180583,-0.0169322697 2.30323972,-0.0397767959 2.7,0.3 L8.7,6.3 C8.98011972,6.58570031 9.06297554,7.01087121 8.91063197,7.38084846 C8.7582884,7.7508257 8.40007517,7.99437994 8,8.00001674 Z" id="Path"></path>
                            <path d="M14,14.0000167 C13.734197,14.0015368 13.4787188,13.8971865 13.29,13.71 L7.29,7.71 C6.9502232,7.31323972 6.97306773,6.72180583 7.34243678,6.35243678 C7.71180583,5.98306773 8.30323972,5.9602232 8.7,6.3 L14.7,12.3 C14.9801197,12.5857003 15.0629755,13.0108712 14.910632,13.3808485 C14.7582884,13.7508257 14.4000752,13.9943799 14,14.0000167 Z" id="Path"></path>
                        </g>
                    </g>
                </g>
            </g>
        </g>
    </g>
</svg>