<?xml version="1.0" encoding="UTF-8"?>
<svg width="24px" height="24px" viewBox="0 0 24 24" version="1.1" xmlns="http://www.w3.org/2000/svg" xmlns:xlink="http://www.w3.org/1999/xlink">
    <!-- Generator: Sketch 55.2 (78181) - https://sketchapp.com -->
    <title>ic-placeholder-settings@2x</title>
    <desc>Created with Sketch.</desc>
    <g id="Symbols" stroke="none" stroke-width="1" fill="none" fill-rule="evenodd" opacity="0.795247396">
        <g id="Setup-Sidebar" transform="translate(-31.000000, -576.000000)" fill="#4A4A4A">
            <g id="ic-comm.setting-unselect" transform="translate(31.000000, 576.000000)">
                <g id="bubble-chat">
                    <path d="M22.3187256,4.56441718 C22.2299194,4.2047546 22.0929565,3.86541409 21.9164429,3.55310582 L23.1068115,2.30674847 L21.7809448,0.918519951 L20.5905762,2.1648773 C20.2835083,1.97469325 19.9486084,1.82879602 19.59375,1.73619632 L19.59375,0 L17.71875,0 L17.71875,1.75306748 C17.3867798,1.8460506 17.0731201,1.98581291 16.7839966,2.1648773 L15.5934448,0.918519951 L14.2677612,2.30674847 L15.4581299,3.55310582 C15.2816162,3.86541409 15.1446533,4.2047546 15.0560303,4.56441718 L13.3590088,4.56441718 L13.3590088,6.52760736 L15.0560303,6.52760736 C15.1446533,6.88726994 15.2816162,7.22661045 15.4581299,7.53891872 L14.2677612,8.78527607 L15.5936279,10.1735046 L16.7839966,8.92714724 C17.0866699,9.11464726 17.4162598,9.25920245 17.765625,9.35199387 L17.765625,11.0920245 L19.640625,11.0920245 L19.640625,9.34336658 C19.9782715,9.25038341 20.2972412,9.10889571 20.5907593,8.92714724 L21.7811279,10.1735046 L23.1069946,8.78527607 L21.916626,7.53891872 C22.0929565,7.22661045 22.2299194,6.88726994 22.3187256,6.52760736 L24,6.52760736 L24,4.56441718 L22.3187256,4.56441718 Z M16.8121948,5.54601227 C16.8121948,5.12442483 16.9401855,4.73389571 17.1569824,4.41372702 L17.6057739,3.9438267 C17.91156,3.71683283 18.284729,3.58282209 18.6871948,3.58282209 C19.7211914,3.58282209 20.5621948,4.4635736 20.5621948,5.54601227 C20.5621948,6.62845094 19.7211914,7.50920245 18.6871948,7.50920245 C17.6533814,7.50920245 16.8121948,6.62845094 16.8121948,5.54601227 L16.8121948,5.54601227 Z M23.9710693,10.6899923 C23.9897461,10.982362 24,11.2797163 24,11.5828221 C24,13.3590874 23.6755371,14.9549463 23.0354004,16.3259202 C22.4256592,17.6319018 21.5293579,18.7381135 20.3713989,19.6142638 C18.3189698,21.1669862 15.4240723,21.9877301 12,21.9877301 C11.0418091,21.9877301 10.116394,21.9233129 9.24169922,21.7958206 C7.25738527,23.8799847 4.81713867,24 4.2852173,24 C4.28009034,24 4.27514648,24 4.27038572,24 L4.26544191,24 L2.57995603,23.9973159 L3.46984866,22.4994248 C3.47442628,22.4915644 3.99060056,21.601227 4.38812255,20.1322853 C1.51336669,18.3642638 1.13686838e-13,15.4250383 1.13686838e-13,11.5828221 C1.13686838e-13,9.80636506 0.324462891,8.21050611 0.964599609,6.83972393 C1.57434084,5.53374233 2.47064208,4.42733894 3.62860106,3.55138037 C5.68103025,1.99865796 8.57592773,1.17791411 12,1.17791411 C12.2664185,1.17791411 12.5291748,1.18347391 12.7890015,1.19344324 C12.388916,1.78604294 12.0681152,2.44133438 11.8428955,3.14225463 C8.88592528,3.16583588 6.42755128,3.85601993 4.72668459,5.14263804 C2.83447266,6.5741948 1.875,8.74098925 1.875,11.5828221 C1.875,14.9633819 3.22576903,17.375 5.88995363,18.7509586 L6.54968259,19.0916411 L6.39056395,19.8435583 C6.23620603,20.5732362 6.04486083,21.2135736 5.85607913,21.7471242 C6.583374,21.4904141 7.44030759,21.0086273 8.18261719,20.1060199 L8.52795413,19.6859662 L9.04998778,19.7787577 C9.9673462,19.9417178 10.9599609,20.0245399 12,20.0245399 C15.0274658,20.0245399 17.5424194,19.3324387 19.2733154,18.0230061 C21.026001,16.6968942 21.9777832,14.7396472 22.1087036,12.1999617 C22.8063354,11.805023 23.4349365,11.2933282 23.9710693,10.6899923 Z" id="Shape" fill-rule="nonzero"></path>
                </g>
            </g>
        </g>
    </g>
</svg>