<?xml version="1.0" encoding="UTF-8"?>
<svg width="16px" height="16px" viewBox="0 0 16 16" version="1.1" xmlns="http://www.w3.org/2000/svg" xmlns:xlink="http://www.w3.org/1999/xlink">
    <!-- Generator: Sketch 54 (76480) - https://sketchapp.com -->
    <title>Shape</title>
    <desc>Created with Sketch.</desc>
    <g id="Setup-screens" stroke="none" stroke-width="1" fill="none" fill-rule="evenodd">
        <g id="Setup_Heat-Schedule_Add-Event" transform="translate(-532.000000, -188.000000)" fill="#000000" fill-rule="nonzero">
            <g id="calendar" transform="translate(532.000000, 188.000000)">
                <g id="Shape">
                    <path d="M14,5 L14,3 L2,3 L2,5 L14,5 Z M14,7 L2,7 L2,14 L14,14 L14,7 Z M12,1 L12,0 L14,0 L14,1 C15.1045695,1 16,1.8954305 16,3 L16,14 C16,15.1045695 15.1045695,16 14,16 L2,16 C0.8954305,16 1.3527075e-16,15.1045695 0,14 L0,3 C-1.3527075e-16,1.8954305 0.8954305,1 2,1 L2,0 L4,0 L4,1 L12,1 Z" id="path-1"></path>
                </g>
            </g>
        </g>
    </g>
</svg>