<?xml version="1.0" encoding="UTF-8"?>
<svg width="24px" height="16px" viewBox="0 0 24 16" version="1.1" xmlns="http://www.w3.org/2000/svg" xmlns:xlink="http://www.w3.org/1999/xlink">
    <!-- Generator: Sketch 55.2 (78181) - https://sketchapp.com -->
    <title>Shape</title>
    <desc>Created with Sketch.</desc>
    <g id="Symbols" stroke="none" stroke-width="1" fill="none" fill-rule="evenodd">
        <g id="Setup-Sidebar" transform="translate(-31.000000, -676.000000)" fill="#000000" fill-rule="nonzero">
            <g id="Group-3" transform="translate(31.000000, 672.000000)">
                <g id="round-cloud_download-24px-(1)">
                    <path d="M19.35,10.04 C18.67,6.59 15.64,4 12,4 C9.11,4 6.6,5.64 5.35,8.04 C2.34,8.36 0,10.91 0,14 C0,17.31 2.69,20 6,20 L19,20 C21.76,20 24,17.76 24,15 C24,12.36 21.95,10.22 19.35,10.04 Z M17,13 L12.35,17.65 C12.15,17.85 11.84,17.85 11.64,17.65 L7,13 L10,13 L10,9 L14,9 L14,13 L17,13 Z" id="Shape"></path>
                </g>
            </g>
        </g>
    </g>
</svg>