<?xml version="1.0" encoding="UTF-8"?>
<svg width="27px" height="20px" viewBox="0 0 27 20" version="1.1" xmlns="http://www.w3.org/2000/svg" xmlns:xlink="http://www.w3.org/1999/xlink">
    <!-- Generator: sketchtool 55.2 (78181) - https://sketchapp.com -->
    <title>92FE3BD9-4C2C-406C-BA52-ED52A076BDA9</title>
    <desc>Created with sketchtool.</desc>
    <g id="Setup-screens" stroke="none" stroke-width="1" fill="none" fill-rule="evenodd">
        <g id="Recipe" transform="translate(-27.000000, -421.000000)" fill="#00000" fill-rule="nonzero" stroke="#000000" stroke-width="0.6">
            <g id="images_new-files-svg_Recipe" transform="translate(28.000000, 422.000000)">
                <path d="M25,2.46509127 L25,18 L0,18 L0,2.44903117 L9.24070174,2.44903117 L9.5106614,2.2651718 L9.59780401,2.19228832 C10.0280793,1.82567803 10.4388367,1.43803785 10.8133735,1.04728553 C11.3459365,0.445681138 12.1001394,0.0704866171 12.9143351,0.00211671191 L21.1679688,0 C21.9654764,0 22.2490906,0.345338773 22.484545,1.14167887 C22.5683186,1.42151383 22.6011812,1.63554182 22.6496516,2.09679746 C22.6638388,2.23180598 22.6760912,2.33984177 22.6883501,2.4313908 L25,2.46509127 Z M21.7626209,3.5673968 L21.6427945,3.1520642 C21.5631305,2.8759389 21.5316067,2.66690217 21.4838238,2.21218874 C21.4424509,1.8184753 21.41679,1.65135069 21.3586672,1.45718769 C21.2507715,1.0922742 21.2877668,1.13732098 21.1679688,1.13732098 L12.9918046,1.13732098 C12.491951,1.18521559 12.02973,1.41849193 11.687145,1.80484624 C11.2704243,2.24030495 10.8311223,2.65488329 10.3669568,3.05033844 L10.2536756,3.14511518 L10.2076713,3.17988691 L9.61086076,3.58635215 L1.171875,3.58635215 L1.171875,16.862679 L23.828125,16.862679 L23.828125,3.58545633 L22.5893494,3.5673968 L21.7626209,3.5673968 Z" id="Shape"></path>
            </g>
        </g>
    </g>
</svg>