<?xml version="1.0" encoding="UTF-8"?>
<svg width="22px" height="20px" viewBox="0 0 22 20" version="1.1" xmlns="http://www.w3.org/2000/svg" xmlns:xlink="http://www.w3.org/1999/xlink">
    <!-- Generator: Sketch 63.1 (92452) - https://sketch.com -->
    <title>live_tv-24px copy</title>
    <desc>Created with Sketch.</desc>
    <g id="Symbols" stroke="none" stroke-width="1" fill="none" fill-rule="evenodd">
        <g id="User-Nav" transform="translate(-28.000000, -256.000000)">
            <g id="Media-Center" transform="translate(27.000000, 254.000000)">
                <g id="live_tv-24px-copy">
                    <polygon id="Path-Copy-3" points="0 0 24 0 24 24 0 24"></polygon>
                    <path d="M21,6 L13.41,6 L16.7,2.71 L16,2 L12,6 L8,2 L7.29,2.71 L10.59,6 L3,6 C1.9,6 1,6.89 1,8 L1,20 C1,21.1 1.9,22 3,22 L21,22 C22.1,22 23,21.1 23,20 L23,8 C23,6.89 22.1,6 21,6 Z" id="Shape" fill="#000000" fill-rule="nonzero"></path>
                    <polygon id="Path" fill="#FFFFFF" fill-rule="nonzero" points="9 10 9 18 16 14"></polygon>
                </g>
            </g>
        </g>
    </g>
</svg>