<?xml version="1.0" encoding="UTF-8"?>
<svg width="31px" height="25px" viewBox="0 0 31 25" version="1.1" xmlns="http://www.w3.org/2000/svg" xmlns:xlink="http://www.w3.org/1999/xlink">
    <!-- Generator: Sketch 55.2 (78181) - https://sketchapp.com -->
    <title>Shape</title>
    <desc>Created with Sketch.</desc>
    <g id="Setup-screens" stroke="none" stroke-width="1" fill="none" fill-rule="evenodd">
        <g id="Recipe" transform="translate(-537.000000, -153.000000)" fill="#FFFFFF" fill-rule="nonzero">
            <g id="Open" transform="translate(517.000000, 142.000000)">
                <g id="folder-(1)" transform="translate(20.000000, 11.000000)">
                    <path d="M29.7031667,8.15419501 L27.9,8.15419501 L27.9,4.95978912 C27.9,4.19176587 27.2665667,3.56746032 26.4884667,3.56746032 L13.6994167,3.56746032 L11.1160833,0 L1.41153333,0 C0.633433333,0 0,0.624815193 0,1.3923288 L0,23.6568486 L0.0031,23.6568486 C0.000516666667,23.9437744 0.0909333333,24.2245845 0.2728,24.4595272 C0.525966667,24.785695 0.909333333,24.9722222 1.32525,24.9722222 L24.4507333,24.9722222 C25.048,24.9722222 25.5739667,24.5752149 25.7165667,24.04825 L31,9.75904252 L31,9.66883673 C31,8.7912415 30.4544,8.15419501 29.7031667,8.15419501 Z M0.861111111,1.23866435 C0.861111111,1.03028797 1.03109784,0.861111111 1.23931868,0.861111111 L10.4118855,0.861111111 L12.9952705,4.47159287 L26.3162369,4.47159287 C26.5249744,4.47159287 26.6944444,4.64076972 26.6944444,4.8491461 L26.6944444,8.08207462 L6.405572,8.08207462 C6.33117051,8.08207462 6.2572857,8.08826402 6.1854676,8.10064281 C5.68274088,8.18471546 5.26474918,8.55092146 5.14023003,9.01667361 L0.861111111,20.6666667 L0.861111111,1.23866435 Z M24.8469912,23.900614 C24.8124891,24.0242874 24.6948681,24.1111111 24.5620871,24.1111111 L1.16388018,24.1111111 C1.03684954,24.1111111 0.962617645,24.0409454 0.929683777,23.9990479 C0.896749908,23.9576552 0.846042205,23.8698218 0.865384318,23.7930939 L6.19282967,9.68271935 C6.22733182,9.55904598 6.34495278,9.47222222 6.47773378,9.47222222 L28.0520317,9.47222222 L29.8764635,9.47222222 C30.0751122,9.47222222 30.1258199,9.74783716 30.1388889,9.88564464 L24.8469912,23.900614 Z" id="Shape"></path>
                </g>
            </g>
        </g>
    </g>
</svg>