<?xml version="1.0" encoding="UTF-8"?>
<svg width="29px" height="26px" viewBox="0 0 29 26" version="1.1" xmlns="http://www.w3.org/2000/svg" xmlns:xlink="http://www.w3.org/1999/xlink">
    <!-- Generator: Sketch 55.2 (78181) - https://sketchapp.com -->
    <title>Group 13</title>
    <desc>Created with Sketch.</desc>
    <g id="Setup-screens" stroke="none" stroke-width="1" fill="none" fill-rule="evenodd">
        <g id="Recipe" transform="translate(-882.000000, -153.000000)" fill="#FFFFFF">
            <g id="Save-as-Copy" transform="translate(861.000000, 142.000000)">
                <g id="folder" transform="translate(21.000000, 11.000000)">
                    <g id="Group-13">
                        <path d="M12.8204167,3.35141509 L10.54295,0.200127358 L10.5424667,0.199648585 L10.3989167,0 L0,0 L0,25.375 L29,25.375 L29,3.35141509 L12.8204167,3.35141509 Z M28.0333333,4.30896226 L28.0333333,6.70283019 L15.2428833,6.70283019 L13.5130333,4.30896226 L28.0333333,4.30896226 Z M0.966666667,24.4174528 L0.966666667,0.95754717 L9.90108333,0.95754717 L12.31775,4.30896226 L12.32355,4.30896226 L14.5903833,7.44540802 C14.6846333,7.57563443 14.8330167,7.6450566 14.9833333,7.64553538 L14.9833333,7.66037736 L28.0333333,7.66037736 L28.0333333,24.4174528 L0.966666667,24.4174528 Z" id="Shape" fill-rule="nonzero"></path>
                        <g id="Group-6" transform="translate(9.000000, 10.000000)">
                            <rect id="Rectangle" x="5" y="0" width="1" height="10"></rect>
                            <rect id="Rectangle-Copy-7" transform="translate(5.500000, 5.000000) rotate(90.000000) translate(-5.500000, -5.000000) " x="5" y="0" width="1" height="10"></rect>
                        </g>
                    </g>
                </g>
            </g>
        </g>
    </g>
</svg>