<?xml version="1.0" encoding="UTF-8"?>
<svg width="40px" height="25px" viewBox="0 0 40 25" version="1.1" xmlns="http://www.w3.org/2000/svg" xmlns:xlink="http://www.w3.org/1999/xlink">
    <!-- Generator: Sketch 55.2 (78181) - https://sketchapp.com -->
    <title>Group 10</title>
    <desc>Created with Sketch.</desc>
    <g id="Setup-screens" stroke="none" stroke-width="1" fill="none" fill-rule="evenodd">
        <g id="Recipe" transform="translate(-619.000000, -152.000000)" fill="#FFFFFF" fill-rule="nonzero">
            <g id="Export" transform="translate(603.000000, 142.000000)">
                <g id="folder-copy-2" transform="translate(16.000000, 10.000000)">
                    <g id="Group-10">
                        <path d="M12.5748148,3.28721174 L10.3409778,0.196293501 L10.3405037,0.195823899 L10.1997037,8.08242362e-13 L-4.79616347e-14,8.08242362e-13 L-4.79616347e-14,24.8888889 L28.4444444,24.8888889 L28.4444444,3.28721174 L12.5748148,3.28721174 Z M27.4962963,4.22641509 L27.4962963,6.57442348 L14.9508741,6.57442348 L13.254163,4.22641509 L27.4962963,4.22641509 Z M0.948148148,23.9496855 L0.948148148,0.939203354 L9.71140741,0.939203354 L12.0817778,4.22641509 L12.0874667,4.22641509 L14.3108741,7.30277568 C14.4033185,7.43050734 14.5488593,7.49859958 14.6962963,7.49906918 L14.6962963,7.51362683 L27.4962963,7.51362683 L27.4962963,23.9496855 L0.948148148,23.9496855 Z" id="Shape"></path>
                        <polygon id="Path" transform="translate(34.222222, 15.111111) rotate(-90.000000) translate(-34.222222, -15.111111) " points="34.6816227 18.5376545 34.6816227 9.77777778 33.7628217 9.77777778 33.7628217 18.5376545 30.8718145 15.4030074 30.2222222 16.1073441 34.2222222 20.4444444 38.2222222 16.1073441 37.5726299 15.4030074"></polygon>
                    </g>
                </g>
            </g>
        </g>
    </g>
</svg>