<?xml version="1.0" encoding="UTF-8"?>
<svg width="24px" height="22px" viewBox="0 0 24 22" version="1.1" xmlns="http://www.w3.org/2000/svg" xmlns:xlink="http://www.w3.org/1999/xlink">
    <!-- Generator: Sketch 55.2 (78181) - https://sketchapp.com -->
    <title>Group 2@2x</title>
    <desc>Created with Sketch.</desc>
    <g id="Symbols" stroke="none" stroke-width="1" fill="none" fill-rule="evenodd">
        <g id="Setup-Sidebar" transform="translate(-27.000000, -69.000000)" fill="#000000" fill-rule="nonzero">
            <g id="Group-2" transform="translate(27.810484, 69.801778)">
                <path d="M18.3991935,12.628 L18.8346774,10.9853333 L17.0927419,10.5746667 C17.1290323,10.2666667 17.1290323,9.92444444 17.0927419,9.61644444 L18.8346774,9.17155556 L18.3629032,7.56311111 L16.6209677,8.008 C16.4758065,7.7 16.2943548,7.42622222 16.1129032,7.18666667 L17.3830645,5.98888889 L16.1129032,4.79111111 L14.8427419,5.98888889 C14.516129,5.78355556 14.1895161,5.57822222 13.8629032,5.44133333 L14.3346774,3.79866667 L12.5927419,3.35377778 L12.1209677,4.99644444 C11.7580645,4.96222222 11.358871,4.96222222 10.9959677,4.99644444 L10.4879032,3.388 L8.78225806,3.83288889 L9.25403226,5.47555556 C8.89112903,5.61244444 8.56451613,5.81777778 8.27419355,6.02311111 L6.96774194,4.82533333 L5.77016129,6.02311111 L7.0766129,7.22088889 C6.85887097,7.49466667 6.67741935,7.83688889 6.53225806,8.14488889 L4.79032258,7.73422222 L4.31854839,9.41111111 L6.06048387,9.82177778 C6.02419355,10.1297778 6.02419355,10.472 6.06048387,10.78 L4.35483871,11.2248889 L4.8266129,12.8333333 L6.56854839,12.3884444 C6.71370968,12.6964444 6.89516129,12.9702222 7.0766129,13.2097778 L5.80645161,14.4075556 L7.0766129,15.6053333 L8.34677419,14.4075556 C8.6733871,14.6128889 9,14.8182222 9.3266129,14.9551111 L8.85483871,16.5977778 L10.5604839,17.0426667 L11.0322581,15.4 C11.3951613,15.4342222 11.7943548,15.4342222 12.1572581,15.4 L12.6290323,17.0426667 L14.3346774,16.5977778 L13.8629032,14.9551111 C14.2258065,14.8182222 14.5524194,14.6128889 14.8427419,14.4075556 L16.1491935,15.6053333 L17.3830645,14.4075556 L16.0766129,13.2097778 C16.2943548,12.936 16.4758065,12.5937778 16.6209677,12.2857778 L18.3991935,12.628 Z M16.2217742,11.9777778 C16.0766129,12.32 15.8951613,12.6622222 15.641129,12.936 L15.4233871,13.2097778 L16.6572581,14.3391111 L16.1129032,14.8524444 L14.8790323,13.7231111 L14.625,13.9626667 C14.3346774,14.168 13.9717742,14.3733333 13.608871,14.5102222 L13.2822581,14.6471111 L13.7540323,16.2213333 L13.0282258,16.4266667 L12.5564516,14.8524444 L12.1935484,14.8866667 C11.7943548,14.9208889 11.3951613,14.9208889 11.0322581,14.8866667 L10.6693548,14.8524444 L10.233871,16.4266667 L9.47177419,16.2555556 L9.90725806,14.6813333 L9.58064516,14.5444444 C9.21774194,14.4075556 8.89112903,14.2022222 8.56451613,13.9968889 L8.31048387,13.7915556 L7.0766129,14.9551111 L6.53225806,14.4417778 L7.76612903,13.2782222 L7.5483871,13.0044444 C7.33064516,12.7306667 7.14919355,12.4568889 7.00403226,12.1488889 L6.85887097,11.8066667 L5.18951613,12.2515556 L4.97177419,11.5328889 L6.64112903,11.088 L6.60483871,10.7457778 C6.56854839,10.4035556 6.56854839,10.0613333 6.60483871,9.75333333 L6.64112903,9.41111111 L4.93548387,9.03466667 L5.11693548,8.316 L6.82258065,8.69244444 L6.96774194,8.38444444 C7.11290323,8.04222222 7.29435484,7.7 7.5483871,7.42622222 L7.76612903,7.15244444 L6.53225806,6.02311111 L7.0766129,5.50977778 L8.31048387,6.63911111 L8.60080645,6.43377778 C8.89112903,6.22844444 9.25403226,6.02311111 9.61693548,5.88622222 L9.94354839,5.74933333 L9.39919355,4.14088889 L10.125,3.93555556 L10.5967742,5.50977778 L10.9596774,5.47555556 C11.358871,5.44133333 11.7580645,5.44133333 12.1209677,5.47555556 L12.483871,5.50977778 L12.9193548,3.93555556 L13.6814516,4.10666667 L13.2459677,5.68088889 L13.5725806,5.81777778 C13.9354839,5.95466667 14.2620968,6.16 14.5887097,6.36533333 L14.8790323,6.57066667 L16.1129032,5.40711111 L16.6572581,5.92044444 L15.3870968,7.11822222 L15.6048387,7.392 C15.8225806,7.66577778 16.0040323,7.93955556 16.1491935,8.24755556 L16.2943548,8.55555556 L17.9637097,8.11066667 L18.1814516,8.82933333 L16.5120968,9.27422222 L16.5483871,9.61644444 C16.5846774,9.95866667 16.5846774,10.3008889 16.5483871,10.6088889 L16.5120968,10.9511111 L18.2177419,11.3275556 L18.0362903,12.0462222 L16.3306452,11.6697778 L16.2217742,11.9777778 Z" id="Shape"></path>
                <path d="M11.5766129,0.924 C16.1129032,0.924 19.9596774,3.86711111 21.0120968,7.87111111 L19.9959677,6.63911111 L19.4153226,7.04977778 L22.0645161,10.2666667 L23.0806452,6.16 L22.391129,5.98888889 L21.9919355,7.63155556 C20.8306452,3.25111111 16.6209677,1.0658141e-13 11.5766129,1.0658141e-13 C6.09677419,1.0658141e-13 1.59677419,3.83288889 0.907258065,8.82933333 L1.9233871,8.82933333 C2.61290323,4.38044444 6.67741935,0.924 11.5766129,0.924 Z" id="Shape"></path>
                <path d="M11.5766129,19.4724444 C6.93145161,19.4724444 3.0483871,16.3924444 2.06854839,12.32 L3.19354839,13.6204444 L3.77419355,13.1755556 L1.16129032,10.0955556 L5.86197757e-14,14.0311111 L0.689516129,14.2022222 L1.125,12.6964444 C2.28629032,17.1453333 6.53225806,20.3964444 11.5766129,20.3964444 C17.0564516,20.3964444 21.5564516,16.5293333 22.2459677,11.5671111 L21.2298387,11.5671111 C20.5403226,16.016 16.4758065,19.4724444 11.5766129,19.4724444 Z" id="Shape"></path>
                <path d="M11.5766129,6.05733333 C9.14516129,6.05733333 7.18548387,7.90533333 7.18548387,10.1982222 C7.18548387,12.4911111 9.14516129,14.3391111 11.5766129,14.3391111 C14.0080645,14.3391111 15.9677419,12.4911111 15.9677419,10.1982222 C15.9677419,7.90533333 14.0080645,6.05733333 11.5766129,6.05733333 Z M11.5766129,13.86 C9.43548387,13.86 7.69354839,12.2173333 7.69354839,10.1982222 C7.69354839,8.17911111 9.43548387,6.53644444 11.5766129,6.53644444 C13.7177419,6.53644444 15.4596774,8.17911111 15.4596774,10.1982222 C15.4596774,12.2173333 13.7177419,13.86 11.5766129,13.86 Z" id="Shape"></path>
            </g>
        </g>
    </g>
</svg>