<?xml version="1.0" encoding="UTF-8"?>
<svg width="42px" height="43px" viewBox="0 0 42 43" version="1.1" xmlns="http://www.w3.org/2000/svg" xmlns:xlink="http://www.w3.org/1999/xlink">
    <!-- Generator: sketchtool 55 (78076) - https://sketchapp.com -->
    <title>E0E1074C-34D6-4842-8B86-7CF3C2BE95BE</title>
    <desc>Created with sketchtool.</desc>
    <g id="Dashboard" stroke="none" stroke-width="1" fill="none" fill-rule="evenodd">
        <g id="Assets" transform="translate(-399.000000, -109.000000)" fill="#0081C6" fill-rule="nonzero">
            <g id="sent" transform="translate(399.000000, 108.000000)">
                <path d="M40.875,1 C40.7768612,1.01591034 40.6819586,1.04765712 40.594,1.094 L0.594,18.281 C0.238551229,18.4388368 0.00685599374,18.7884418 -7.43661694e-06,19.177298 C-0.00687086698,19.5661542 0.212342626,19.9237179 0.562,20.094 L15.47,27.53 L22.907,42.437 C22.718752,42.8602819 22.8458674,43.3574416 23.2141827,43.6384197 C23.5824981,43.9193978 24.0955762,43.9106249 24.4540703,43.6172192 C24.8125644,43.3238136 24.9226089,42.8225988 24.72,42.406 L41.907,2.406 C42.0567103,2.07672524 42.016538,1.69221896 41.802,1.401 C41.5894107,1.10856872 41.2348052,0.954625543 40.876,0.999 L40.875,1 Z M36.625,4.969 L16,25.594 L3.375,19.28 L36.625,4.969 Z M38.031,6.375 L23.72,39.625 L17.406,27 L38.031,6.375 Z" id="surface1"></path>
            </g>
        </g>
    </g>
</svg>