<?xml version="1.0" encoding="UTF-8"?>
<svg width="24px" height="24px" viewBox="0 0 24 24" version="1.1" xmlns="http://www.w3.org/2000/svg" xmlns:xlink="http://www.w3.org/1999/xlink">
    <!-- Generator: Sketch 55.2 (78181) - https://sketchapp.com -->
    <title>System-Settings-simplified@2x</title>
    <desc>Created with Sketch.</desc>
    <g id="Symbols" stroke="none" stroke-width="1" fill="none" fill-rule="evenodd">
        <g id="Setup-Sidebar" transform="translate(-27.000000, -158.000000)" fill="#4A4A4A">
            <g id="System-Settings-simplified" transform="translate(27.000000, 158.000000)">
                <path d="M23.3032258,16.1419355 L23.9225806,13.5483871 L21.0193548,12.8516129 C21.0580645,12.2322581 21.0580645,11.5741935 20.9806452,10.916129 L23.883871,10.1032258 L23.1870968,7.50967742 L20.283871,8.32258065 C20.0129032,7.74193548 19.7032258,7.16129032 19.316129,6.65806452 L21.4451613,4.52903226 L19.5483871,2.63225806 L17.4193548,4.72258065 C16.8387097,4.29677419 16.2580645,3.9483871 15.6,3.63870968 L16.3741935,0.735483871 L13.7806452,0.0387096774 L13.0064516,2.94193548 C12.3096774,2.86451613 11.6129032,2.86451613 10.916129,2.94193548 L10.1032258,0.0387096774 L7.50967742,0.774193548 L8.32258065,3.67741935 C7.66451613,3.98709677 7.04516129,4.33548387 6.50322581,4.76129032 L4.37419355,2.70967742 L2.51612903,4.64516129 L4.68387097,6.73548387 C4.25806452,7.31612903 3.9483871,7.93548387 3.67741935,8.59354839 L0.774193548,7.89677419 L0.0774193548,10.4516129 L2.98064516,11.1483871 C2.94193548,11.7677419 2.94193548,12.4258065 3.01935484,13.083871 L0.116129032,13.8967742 L0.812903226,16.4903226 L3.71612903,15.6774194 C3.98709677,16.2580645 4.29677419,16.8387097 4.68387097,17.3419355 L2.55483871,19.4709677 L4.4516129,21.3677419 L6.58064516,19.2387097 C7.16129032,19.6645161 7.74193548,20.0129032 8.4,20.3225806 L7.62580645,23.2258065 L10.2193548,23.9225806 L10.9935484,21.0193548 C11.6903226,21.0967742 12.3870968,21.0967742 13.083871,21.0193548 L13.8967742,23.9225806 L16.4903226,23.1870968 L15.6774194,20.283871 C16.3354839,19.9741935 16.9548387,19.6258065 17.4967742,19.2 L19.6645161,21.2903226 L21.5225806,19.3548387 L19.3548387,17.2645161 C19.7806452,16.683871 20.0903226,16.0645161 20.3612903,15.4064516 L23.3032258,16.1419355 Z M14.0903226,16.1032258 C13.8193548,16.2580645 13.5096774,16.3741935 13.2387097,16.4516129 C11.6903226,16.8774194 10.1419355,16.4903226 9.01935484,15.5225806 C8.67096774,15.2129032 8.36129032,14.8258065 8.09032258,14.4 C7.85806452,14.0516129 7.66451613,13.6645161 7.5483871,13.2387097 C7.5483871,13.2 7.5483871,13.1225806 7.50967742,13.083871 C6.92903226,10.683871 8.36129032,8.20645161 10.7612903,7.5483871 C13.2,6.8516129 15.7548387,8.32258065 16.4516129,10.7612903 C16.5290323,11.0709677 16.6064516,11.3806452 16.6064516,11.6903226 C16.7225806,13.5096774 15.7548387,15.2903226 14.0903226,16.1032258 Z" id="Shape"></path>
            </g>
        </g>
    </g>
</svg>