<svg id="Layer_1" data-name="Layer 1" xmlns="http://www.w3.org/2000/svg" viewBox="0 0 193.58 32.1"><defs><style>.cls-1{fill:#fff;}</style></defs><title>BBconn Cloud logo and font</title><path class="cls-1" d="M63.72,26.24h5c4.34,0,5.76,2.72,5,7l-.26,1.49c-.58,3.21-2,5.13-4.38,5.57,2.23.94,3.14,3.13,2.56,6.28l-.36,1.89c-.8,4.39-2.55,7.66-7.95,7.66h-6ZM61,53.48h2.59c2.93,0,4-1.78,4.6-5.32l.36-1.91c.47-2.63.21-4.79-3.39-4.79H63.57Zm4.8-14.63c3.07,0,4.09-1.13,4.69-4.52l.23-1.26c.42-2.5,0-4.18-2.88-4.18H66.22l-2.1,10Z" transform="translate(-57.21 -25.48)"/><path class="cls-1" d="M63.35,56.24H57.21l0-.16,6.37-30h5.12A5.25,5.25,0,0,1,73,27.71c1,1.21,1.32,3.07.89,5.54l-.27,1.48c-.57,3.14-1.94,5-4.1,5.6,2,1,2.84,3.24,2.28,6.26l-.35,1.88C70.73,52.32,69.22,56.24,63.35,56.24ZM57.54,56h5.81c5.65,0,7.1-3.63,7.82-7.54l.36-1.89c.57-3.09-.29-5.22-2.48-6.13l-.42-.18.44-.08c2.26-.42,3.7-2.26,4.28-5.47l.26-1.48c.42-2.38.14-4.17-.82-5.32a5,5,0,0,0-4.06-1.51h-4.9Zm6.05-2.36H60.83l0-.16,2.59-12.12h1.7a3.79,3.79,0,0,1,3.06,1.05c.84,1,.69,2.62.46,3.9l-.36,1.91C67.69,51.62,66.71,53.61,63.59,53.61Zm-2.42-.27h2.42c2.93,0,3.86-1.91,4.47-5.2l.35-1.91c.33-1.82.2-2.95-.4-3.67a3.51,3.51,0,0,0-2.85-1H63.67ZM65.8,39H64l0-.16,2.12-10.07h1.73a3.2,3.2,0,0,1,2.58.89c.58.7.72,1.76.43,3.44l-.23,1.26C70,37.9,68.86,39,65.8,39Zm-1.51-.27H65.8c2.93,0,4-1,4.56-4.41l.22-1.26c.27-1.58.16-2.6-.37-3.23A3,3,0,0,0,67.84,29H66.32Z" transform="translate(-57.21 -25.48)"/><path class="cls-1" d="M83.63,26.24h5c4.33,0,5.76,2.72,5,7l-.26,1.49c-.58,3.21-2,5.13-4.39,5.57,2.24.94,3.15,3.13,2.56,6.28l-.35,1.89c-.81,4.39-2.56,7.66-8,7.66h-6ZM80.91,53.48H83.5c2.92,0,3.94-1.78,4.6-5.32l.35-1.91c.47-2.63.22-4.79-3.38-4.79h-1.6ZM85.7,38.85c3.08,0,4.09-1.13,4.7-4.52l.22-1.26c.43-2.5,0-4.18-2.87-4.18H86.12L84,38.85Z" transform="translate(-57.21 -25.48)"/><path class="cls-1" d="M83.25,56.24H77.11l0-.16,6.37-30h5.12a5.25,5.25,0,0,1,4.26,1.6c1,1.21,1.31,3.07.88,5.54l-.26,1.48c-.57,3.14-2,5-4.1,5.6,2,1,2.83,3.24,2.28,6.26l-.36,1.88C90.64,52.32,89.12,56.24,83.25,56.24ZM77.45,56h5.8c5.66,0,7.11-3.63,7.83-7.54l.35-1.89c.57-3.09-.28-5.22-2.48-6.13l-.41-.18.44-.08c2.26-.42,3.69-2.26,4.28-5.47l.26-1.48c.42-2.38.14-4.17-.82-5.32a5,5,0,0,0-4.06-1.51h-4.9Zm6-2.36H80.74l0-.16,2.58-12.12h1.71a3.75,3.75,0,0,1,3.05,1.05c.85,1,.69,2.62.46,3.9l-.35,1.91C87.59,51.62,86.62,53.61,83.5,53.61Zm-2.42-.27H83.5c2.93,0,3.86-1.91,4.47-5.2l.35-1.91c.32-1.82.2-2.95-.4-3.67a3.51,3.51,0,0,0-2.85-1H83.58ZM85.7,39H83.86l0-.16L86,28.76h1.74a3.2,3.2,0,0,1,2.58.89c.58.7.71,1.76.42,3.44l-.22,1.26C89.9,37.9,88.77,39,85.7,39Zm-1.51-.27H85.7c2.93,0,4-1,4.57-4.41l.22-1.26c.27-1.58.15-2.6-.37-3.23A3,3,0,0,0,87.75,29H86.23Z" transform="translate(-57.21 -25.48)"/><path class="cls-1" d="M109.3,49.36l-.13.6c-.66,3-1.7,6.51-6.32,6.51-5,0-5.06-4-4.33-7.46L100.44,40c.78-3.65,2-7,6.28-7,4.87,0,5.17,3.57,4.59,6.58l-.22,1.14h-3l.24-1.3c.47-2.33.24-3.81-1.74-3.81-1.69,0-2.34,1.49-2.94,4.23l-2.11,9.87c-.53,2.48-.35,4.14,1.68,4.14,1.76,0,2.29-1.44,2.85-3.68l.19-.8Z" transform="translate(-57.21 -25.48)"/><path class="cls-1" d="M102.85,56.6A4.7,4.7,0,0,1,99,55.13c-1-1.25-1.21-3.26-.59-6.15l1.92-9c.73-3.43,1.88-7.08,6.41-7.08a4.92,4.92,0,0,1,4,1.5c.94,1.14,1.19,2.9.74,5.25l-.25,1.25h-3.3l.27-1.46c.32-1.6.26-2.59-.18-3.13a1.72,1.72,0,0,0-1.43-.53c-1.6,0-2.22,1.45-2.81,4.13l-2.11,9.87c-.37,1.76-.33,2.85.14,3.44a1.72,1.72,0,0,0,1.41.53c1.56,0,2.12-1.15,2.72-3.57l.22-.9h3.34l-.17.76C108.61,53.19,107.48,56.6,102.85,56.6Zm3.87-23.48c-4.33,0-5.44,3.54-6.15,6.86L98.65,49c-.59,2.81-.42,4.75.54,5.93a4.47,4.47,0,0,0,3.66,1.37c4.43,0,5.49-3.16,6.19-6.4l.1-.43h-2.8l-.17.69c-.55,2.22-1.08,3.78-3,3.78a1.93,1.93,0,0,1-1.61-.64c-.54-.66-.6-1.79-.2-3.66l2.11-9.87c.62-2.81,1.29-4.34,3.07-4.34a2,2,0,0,1,1.63.63c.51.61.58,1.64.24,3.35l-.21,1.14H111l.2-1c.44-2.27.21-4-.68-5A4.66,4.66,0,0,0,106.72,33.12Z" transform="translate(-57.21 -25.48)"/><path class="cls-1" d="M129.83,40.35l-1.9,9.06c-1,5-2.64,7.06-6.73,7.06-3.78,0-5.77-2.32-4.72-7.3l2-9.55c.82-3.86,2.43-6.63,6.59-6.63S130.79,35.73,129.83,40.35Zm-8.2-.73-2.14,10.06c-.61,2.88.31,4.16,2,4.16s2.54-1,3.18-4l2.13-9.9c.55-2.59.09-4.29-2-4.29C122.91,35.62,122.16,37.18,121.63,39.62Z" transform="translate(-57.21 -25.48)"/><path class="cls-1" d="M121.2,56.6A5,5,0,0,1,117.08,55c-1-1.28-1.28-3.24-.73-5.83l2-9.56c.66-3.14,2-6.74,6.72-6.74a5,5,0,0,1,4.1,1.62c1,1.28,1.31,3.33.77,5.91l-1.9,9.06C127,54.73,125.17,56.6,121.2,56.6Zm3.89-23.48c-3.56,0-5.49,2-6.46,6.52l-2,9.56c-.53,2.51-.3,4.4.68,5.61a4.76,4.76,0,0,0,3.91,1.52c3.8,0,5.53-1.82,6.59-6.95l1.91-9.06c.52-2.5.27-4.46-.72-5.68A4.74,4.74,0,0,0,125.09,33.12ZM121.52,54a2.17,2.17,0,0,1-1.79-.75c-.59-.73-.72-1.93-.37-3.57l2.14-10.06c.54-2.46,1.3-4.11,3.28-4.11a2.28,2.28,0,0,1,1.86.75c.58.73.69,2,.32,3.71l-2.13,9.89C124.19,52.81,123.27,54,121.52,54Zm.24-14.33L119.62,49.7c-.32,1.54-.21,2.7.31,3.35a2,2,0,0,0,1.59.65c1.61,0,2.44-1.06,3-3.92l2.13-9.89c.35-1.66.26-2.83-.27-3.49a2,2,0,0,0-1.65-.65C123,35.75,122.27,37.31,121.76,39.64Z" transform="translate(-57.21 -25.48)"/><path class="cls-1" d="M137.59,40.28c1-4.57,1.25-6,1.43-6.94h3c-.06.48-.16,1.15-.37,2.1A5,5,0,0,1,146.09,33c2.5,0,4.12,1.71,3.33,5.4l-3.78,17.72h-3.09l3.61-17c.47-2.2.13-3.44-1.64-3.44s-3.15,1.49-4,5.43l-3.21,15h-3.08Z" transform="translate(-57.21 -25.48)"/><path class="cls-1" d="M145.75,56.24h-3.36l0-.16,3.61-17c.29-1.38.24-2.29-.16-2.78a1.61,1.61,0,0,0-1.35-.5c-1.86,0-3.09,1.69-3.85,5.32l-3.23,15.14h-3.36l0-.16,3.51-16.6c.83-3.92,1.1-5.24,1.27-6.16l0-.11h3.26v.15c0,.33-.12.83-.25,1.5a5.07,5.07,0,0,1,4.18-2,3.54,3.54,0,0,1,2.87,1.2c.79,1,1,2.48.59,4.37Zm-3-.27h2.81l3.76-17.61c.38-1.8.2-3.24-.53-4.14a3.3,3.3,0,0,0-2.67-1.1,4.89,4.89,0,0,0-4.32,2.39l-.4.6.15-.7c.19-.86.29-1.51.35-1.93h-2.74c-.17.92-.45,2.29-1.24,6.06l-.16.76L134.41,56h2.81L140.41,41c.79-3.77,2.1-5.53,4.11-5.53a1.86,1.86,0,0,1,1.56.6c.46.57.53,1.52.21,3Z" transform="translate(-57.21 -25.48)"/><path class="cls-1" d="M157.32,40.28c1-4.57,1.25-6,1.43-6.94h3c-.07.48-.16,1.15-.37,2.1A5,5,0,0,1,165.82,33c2.49,0,4.11,1.71,3.33,5.4l-3.78,17.72h-3.09l3.61-17c.47-2.2.13-3.44-1.64-3.44s-3.16,1.49-4,5.43l-3.21,15H154Z" transform="translate(-57.21 -25.48)"/><path class="cls-1" d="M165.48,56.24h-3.36l0-.16,3.6-17c.3-1.38.25-2.29-.15-2.78a1.62,1.62,0,0,0-1.35-.5c-1.87,0-3.09,1.69-3.85,5.32l-3.23,15.14h-3.36l0-.16,3.51-16.6c.82-3.92,1.1-5.24,1.27-6.16l0-.11h3.26l0,.15c0,.33-.11.83-.24,1.5a5.05,5.05,0,0,1,4.18-2,3.54,3.54,0,0,1,2.87,1.2c.79,1,1,2.48.59,4.37Zm-3-.27h2.82L169,38.36c.38-1.8.2-3.24-.54-4.14a3.27,3.27,0,0,0-2.66-1.1,4.92,4.92,0,0,0-4.33,2.39l-.39.6.15-.7c.19-.86.28-1.51.35-1.93h-2.74c-.17.92-.46,2.29-1.25,6.06l-.16.76L154.14,56H157L160.14,41c.79-3.77,2.09-5.53,4.11-5.53a1.86,1.86,0,0,1,1.56.6c.46.57.52,1.52.21,3Z" transform="translate(-57.21 -25.48)"/><path class="cls-1" d="M185.7,49.58l-.14.58c-.71,3.13-1.6,7-5.54,7-3.53,0-4.38-2.55-3.4-7.33L180,33.66c1.11-5.32,2.68-7,5.41-7,3.84,0,4.24,3.35,3.53,7l-.18.9H188l.17-.85c.72-3.45.4-6.35-2.9-6.35-1.66,0-3.44.58-4.61,6.3l-3.35,16.19c-1.12,5.36.36,6.66,2.73,6.66,3,0,3.89-2.5,4.78-6.35l.14-.58Z" transform="translate(-57.21 -25.48)"/><path class="cls-1" d="M180,57.58a4,4,0,0,1-3.26-1.28c-1-1.25-1.19-3.33-.53-6.53l3.35-16.19c1.11-5.25,2.73-7.29,5.81-7.29a4,4,0,0,1,3.24,1.31c1,1.24,1.25,3.3.68,6.14L189.07,35h-1.54l.28-1.34c.5-2.43.39-4.12-.35-5a2.59,2.59,0,0,0-2.16-.84c-1.45,0-3.09.46-4.21,6l-3.36,16.19c-.56,2.7-.48,4.52.24,5.41a2.52,2.52,0,0,0,2.1.77c2.54,0,3.44-2,4.39-6l.21-.89h1.54L186,50.25C185.25,53.34,184.29,57.58,180,57.58Z" transform="translate(-57.21 -25.48)"/><path class="cls-1" d="M192.5,56.82l6.57-30.94h.72l-6.57,30.94Z" transform="translate(-57.21 -25.48)"/><polygon class="cls-1" points="136.34 31.74 134.8 31.74 134.91 31.26 141.54 0 143.09 0 142.98 0.49 136.34 31.74"/><path class="cls-1" d="M213.52,40.23l-2.19,10.69c-.94,4.61-2.28,6.26-5.19,6.26-2.68,0-4.15-1.83-3.21-6.3l2.28-11.05c.89-4.33,2.59-5.81,5-5.81C213.07,34,214.42,35.94,213.52,40.23Zm-7.6-.49-2.28,11c-.85,4,.09,5.81,2.64,5.81,2.32,0,3.49-1.43,4.38-5.81l2.1-10.2c1-4.69-.54-5.81-2.68-5.81C208.29,34.69,206.77,35.76,205.92,39.74Z" transform="translate(-57.21 -25.48)"/><path class="cls-1" d="M206.14,57.58a3.67,3.67,0,0,1-3-1.24c-.93-1.14-1.13-3-.6-5.55l2.28-11c.86-4.18,2.58-6.13,5.4-6.13a3.77,3.77,0,0,1,3.11,1.26c.91,1.12,1.11,2.95.59,5.43L211.72,51C210.75,55.8,209.24,57.58,206.14,57.58Zm.17-17.76-2.28,11c-.47,2.23-.38,3.77.28,4.58a2.38,2.38,0,0,0,2,.75c1.86,0,3.05-.88,4-5.49l2.1-10.2c.47-2.24.38-3.79-.27-4.58a2.44,2.44,0,0,0-2-.75C208.8,35.09,207.21,35.63,206.31,39.82Z" transform="translate(-57.21 -25.48)"/><path class="cls-1" d="M227.89,51.59c-.5,2.24-.9,4.29-1,5.23h-.67a20.59,20.59,0,0,1,.57-3.08c-.89,2.1-2.23,3.44-4.29,3.44-1.83,0-3.79-.81-2.86-5.28l3.71-17.52H224l-3.67,17.35c-.67,3-.13,4.73,2.19,4.73,2.15,0,3.89-1.52,5.28-7.91l3-14.17h.72Z" transform="translate(-57.21 -25.48)"/><path class="cls-1" d="M222.47,57.58a3.35,3.35,0,0,1-2.76-1.09c-.79-1-1-2.49-.49-4.67L223,34h1.53l-3.77,17.83c-.39,1.79-.33,3,.18,3.65a2,2,0,0,0,1.62.6c1.68,0,3.44-.92,4.89-7.59L230.51,34h1.54l-.11.48-3.66,17.22c-.47,2.13-.89,4.22-1,5.2l-.05.34h-1.42v-.4a7,7,0,0,1,.1-.83A4.34,4.34,0,0,1,222.47,57.58Zm4.2-3.9.33.11c.15-.72.32-1.5.49-2.28A18.12,18.12,0,0,1,226.67,53.68Z" transform="translate(-57.21 -25.48)"/><path class="cls-1" d="M250.29,25.88,244.74,52c-.31,1.56-.66,3.31-.93,4.87h-.67c0-.53.31-1.88.53-2.86-.76,1.66-1.79,3.22-4.2,3.22-2.91,0-3.84-2.15-2.82-7l2-9.43c1-4.61,2.37-6.71,5.09-6.71s3.35,1.88,3.35,3.53l2.47-11.67ZM239.38,40.77l-2,9.21c-.8,3.76-.8,6.53,2.1,6.53,3.31,0,4.34-3.76,5.64-9.84l.76-3.62c1.12-5.27,1-8.36-2.24-8.36C241.3,34.69,240.19,37,239.38,40.77Z" transform="translate(-57.21 -25.48)"/><path class="cls-1" d="M239.47,57.58a3.43,3.43,0,0,1-2.79-1.12c-.94-1.17-1.08-3.26-.42-6.38l2-9.44c1.07-5,2.66-7,5.49-7a3.45,3.45,0,0,1,3.37,1.94l2.12-10.08h1.54l-.11.49L245,52.63c-.28,1.4-.58,2.9-.82,4.26l-.06.33H242.7l0-.43a6.25,6.25,0,0,1,.09-.69A4.21,4.21,0,0,1,239.47,57.58Zm4.2-22.49c-1.9,0-3,1.67-3.89,5.77l-2,9.21c-.42,2-.8,4.35.06,5.41a2,2,0,0,0,1.64.63c3,0,4-3.6,5.25-9.52l.76-3.62c.83-3.93.83-6.14,0-7.16A2.22,2.22,0,0,0,243.67,35.09Zm.84,16a1.33,1.33,0,0,1,0,.19Z" transform="translate(-57.21 -25.48)"/></svg>