<?xml version="1.0" encoding="UTF-8"?>
<svg width="24px" height="23px" viewBox="0 0 24 23" version="1.1" xmlns="http://www.w3.org/2000/svg" xmlns:xlink="http://www.w3.org/1999/xlink">
    <!-- Generator: Sketch 59.1 (86144) - https://sketch.com -->
    <title>Icon</title>
    <desc>Created with Sketch.</desc>
    <g id="Dashboard" stroke="none" stroke-width="1" fill="none" fill-rule="evenodd">
        <g id="media-center" transform="translate(-549.000000, -521.000000)" fill="#0181C5">
            <g id="PDF-Card" transform="translate(348.000000, 506.000000)">
                <g id="Icon" transform="translate(201.000000, 15.000000)">
                    <path d="M20.35,4.676 C22.567,5.606 24,7.743 24,10.119 C24,13.385 21.305,16.041 17.993,16.041 L16.521,16.041 L16.521,14.565 L17.993,14.565 C20.477,14.565 22.498,12.571 22.498,10.119 C22.498,8.042 21.036,6.248 18.998,5.789 C18.526,3.279 16.343,1.475 13.739,1.475 C11.766,1.475 9.94,2.569 9.015,4.282 C8.628,4.093 8.207,3.994 7.784,3.994 C6.271,3.994 5.033,5.183 4.982,6.666 C3.217,7.151 2.002,8.715 2.002,10.539 C2.002,12.759 3.833,14.565 6.082,14.565 L8.01,14.565 L8.01,16.041 L6.082,16.041 C3.004,16.041 0.5,13.573 0.5,10.539 C0.5,8.448 1.668,6.569 3.549,5.636 L3.644,5.589 L3.676,5.488 C4.244,3.712 5.895,2.518 7.784,2.518 C7.938,2.518 8.091,2.527 8.244,2.543 L8.375,2.556 L8.461,2.455 C9.775,0.894 11.699,0 13.739,0 C16.663,0 19.263,1.819 20.21,4.528 L20.247,4.633 L20.35,4.676 Z M15.8987,19.3294 L12.7417,22.3094 C12.7353,22.3132 12.7287,22.3169 12.7222,22.3205 C12.7046,22.3305 12.6871,22.3404 12.6717,22.3514 L12.6127,22.3924 C12.6074,22.3961 12.6022,22.3998 12.5971,22.4034 C12.5731,22.4204 12.5514,22.4358 12.5357,22.4424 C12.3417,22.5184 12.1557,22.5174 11.9647,22.4434 C11.9527,22.4378 11.9356,22.4258 11.9159,22.412 C11.911,22.4086 11.9059,22.405 11.9007,22.4014 L11.8437,22.3614 C11.8277,22.3509 11.8116,22.3416 11.7866,22.327 C11.7711,22.318 11.7522,22.3069 11.7277,22.2924 L8.6017,19.3294 C8.4577,19.1934 8.3767,19.0104 8.3727,18.8144 C8.3687,18.6184 8.4427,18.4304 8.5817,18.2884 C8.7287,18.1374 8.9257,18.0614 9.1237,18.0614 C9.3107,18.0614 9.4997,18.1294 9.6457,18.2684 L11.4977,20.0244 L11.4977,8.9204 C11.4977,8.5144 11.8347,8.1834 12.2497,8.1834 C12.6637,8.1834 13.0007,8.5144 13.0007,8.9204 L13.0007,20.0244 L14.8557,18.2684 C15.1537,17.9834 15.6307,17.9934 15.9197,18.2884 C16.0577,18.4304 16.1317,18.6174 16.1277,18.8134 C16.1237,19.0094 16.0427,19.1934 15.8987,19.3294 Z" id="Shape"></path>
                </g>
            </g>
        </g>
    </g>
</svg>