<?xml version="1.0" encoding="UTF-8"?>
<svg width="11px" height="11px" viewBox="0 0 11 11" version="1.1" xmlns="http://www.w3.org/2000/svg" xmlns:xlink="http://www.w3.org/1999/xlink">
    <!-- Generator: Sketch 58 (84663) - https://sketch.com -->
    <title>info</title>
    <desc>Created with Sketch.</desc>
    <g id="Dashboard" stroke="none" stroke-width="1" fill="none" fill-rule="evenodd">
        <g id="Reskin_Equip-management" transform="translate(-476.000000, -495.000000)" fill="#000000" fill-rule="nonzero">
            <g id="info" transform="translate(476.000000, 495.000000)">
                <path d="M5.5,0 C2.46738462,0 0,2.46721538 0,5.5 C0,8.53278462 2.46738462,11 5.5,11 C8.53261538,11 11,8.53278462 11,5.5 C11,2.46721538 8.53261538,0 5.5,0 Z M5.5,10.3230769 C2.84053846,10.3230769 0.676923077,8.15946154 0.676923077,5.5 C0.676923077,2.84053846 2.84053846,0.676923077 5.5,0.676923077 C8.15946154,0.676923077 10.3230769,2.84053846 10.3230769,5.5 C10.3230769,8.15946154 8.15946154,10.3230769 5.5,10.3230769 Z" id="Shape"></path>
                <circle id="Oval" cx="5.43" cy="3.5" r="1"></circle>
                <path d="M5.43856923,4.79633846 C5.25173846,4.79633846 5.10010769,4.94796923 5.10010769,5.1348 L5.10010769,8.01172308 C5.10010769,8.19855385 5.25173846,8.35018462 5.43856923,8.35018462 C5.6254,8.35018462 5.77703077,8.19855385 5.77703077,8.01172308 L5.77703077,5.1348 C5.77703077,4.9478 5.6254,4.79633846 5.43856923,4.79633846 Z" id="Path"></path>
            </g>
        </g>
    </g>
</svg>