<?xml version="1.0" encoding="UTF-8"?>
<svg width="41px" height="31px" viewBox="0 0 41 31" version="1.1" xmlns="http://www.w3.org/2000/svg" xmlns:xlink="http://www.w3.org/1999/xlink">
    <!-- Generator: Sketch 62 (91390) - https://sketch.com -->
    <title>Shape</title>
    <desc>Created with Sketch.</desc>
    <g id="Sign-in-/-sign-up-screens" stroke="none" stroke-width="1" fill="none" fill-rule="evenodd">
        <g id="Email-Verification" transform="translate(-582.000000, -291.000000)" fill="#0081C6" fill-rule="nonzero">
            <path d="M619.156223,291 L585.843777,291 C583.724188,291 582,292.738203 582,294.875022 L582,318.124978 C582,320.261797 583.724188,322 585.843777,322 L619.156223,322 C621.275812,322 623,320.261797 623,318.124978 L623,294.875022 C623,292.738203 621.275812,291 619.156223,291 Z M619.156223,293.583319 C619.330302,293.583319 619.495909,293.619729 619.647308,293.683318 L602.5,308.665809 L585.352607,293.683318 C585.504006,293.619816 585.669612,293.583319 585.843691,293.583319 L619.156223,293.583319 Z M619.156223,319.416595 L585.843777,319.416595 C585.136848,319.416595 584.562489,318.837654 584.562489,318.124892 L584.562489,296.412623 L601.660415,311.351283 C601.901935,311.561894 602.200967,311.666638 602.5,311.666638 C602.799033,311.666638 603.098065,311.56198 603.339585,311.351283 L620.437511,296.412623 L620.437511,318.124978 C620.437511,318.837654 619.863152,319.416595 619.156223,319.416595 L619.156223,319.416595 Z" id="Shape"></path>
        </g>
    </g>
</svg>