<?xml version="1.0" encoding="UTF-8"?>
<svg width="38px" height="38px" viewBox="0 0 38 38" version="1.1" xmlns="http://www.w3.org/2000/svg" xmlns:xlink="http://www.w3.org/1999/xlink">
    <!-- Generator: Sketch 59.1 (86144) - https://sketch.com -->
    <title>Shape</title>
    <desc>Created with Sketch.</desc>
    <g id="Dashboard" stroke="none" stroke-width="1" fill="none" fill-rule="evenodd">
        <g id="media-center" transform="translate(-449.000000, -572.000000)" fill="#0181C5" fill-rule="nonzero">
            <g id="PDF-Card" transform="translate(348.000000, 506.000000)">
                <g id="PDF" transform="translate(101.000000, 66.000000)">
                    <path d="M33.6666,0.666626 L11.6666,0.666626 C9.64996,0.666626 7.99996,2.31663 7.99996,4.33329 L7.99996,26.3333 C7.99996,28.35 9.64996,30 11.6666,30 L33.6666,30 C35.6833,30 37.3333,28.35 37.3333,26.3333 L37.3333,4.33329 C37.3333,2.31663 35.6833,0.666626 33.6666,0.666626 Z M18.0833,14.4166 C18.0833,15.9383 16.855,17.1666 15.3333,17.1666 L13.5,17.1666 L13.5,20.8333 L10.75,20.8333 L10.75,9.83329 L15.3333,9.83329 C16.855,9.83329 18.0833,11.0616 18.0833,12.5833 L18.0833,14.4166 Z M27.25,18.0833 C27.25,19.605 26.0216,20.8333 24.5,20.8333 L19.9166,20.8333 L19.9166,9.83329 L24.5,9.83329 C26.0216,9.83329 27.25,11.0616 27.25,12.5833 L27.25,18.0833 Z M34.5833,12.5833 L31.8333,12.5833 L31.8333,14.4166 L34.5833,14.4166 L34.5833,17.1666 L31.8333,17.1666 L31.8333,20.8333 L29.0833,20.8333 L29.0833,9.83329 L34.5833,9.83329 L34.5833,12.5833 Z M13.5,14.4166 L15.3333,14.4166 L15.3333,12.5833 L13.5,12.5833 L13.5,14.4166 Z M4.33329,7.99996 L0.666626,7.99996 L0.666626,33.6666 C0.666626,35.6833 2.31663,37.3333 4.33329,37.3333 L30,37.3333 L30,33.6666 L4.33329,33.6666 L4.33329,7.99996 Z M22.6666,18.0833 L24.5,18.0833 L24.5,12.5833 L22.6666,12.5833 L22.6666,18.0833 Z" id="Shape"></path>
                </g>
            </g>
        </g>
    </g>
</svg>