<?xml version="1.0" encoding="UTF-8"?>
<svg width="20px" height="17px" viewBox="0 0 20 17" version="1.1" xmlns="http://www.w3.org/2000/svg" xmlns:xlink="http://www.w3.org/1999/xlink">
    <!-- Generator: sketchtool 54.1 (76490) - https://sketchapp.com -->
    <title>41D20046-96FB-4FB4-AB97-5C4D9837CD38@1x</title>
    <desc>Created with sketchtool.</desc>
    <g id="Dashboard" stroke="none" stroke-width="1" fill="none" fill-rule="evenodd">
        <g id="Assets" transform="translate(-311.000000, -43.000000)">
            <g id="round-home-24px" transform="translate(309.000000, 40.000000)">
                <polygon id="Path" points="0 0 24 0 24 24 0 24"></polygon>
                <path d="M10,19 L10,14 L14,14 L14,19 C14,19.55 14.45,20 15,20 L18,20 C18.55,20 19,19.55 19,19 L19,12 L20.7,12 C21.16,12 21.38,11.43 21.03,11.13 L12.67,3.6 C12.29,3.26 11.71,3.26 11.33,3.6 L2.97,11.13 C2.63,11.43 2.84,12 3.3,12 L5,12 L5,19 C5,19.55 5.45,20 6,20 L9,20 C9.55,20 10,19.55 10,19 Z" id="Path" fill="#000000" fill-rule="nonzero"></path>
            </g>
        </g>
    </g>
</svg>