<?xml version="1.0" encoding="UTF-8"?>
<svg width="16px" height="16px" viewBox="0 0 16 16" version="1.1" xmlns="http://www.w3.org/2000/svg" xmlns:xlink="http://www.w3.org/1999/xlink">
    <!-- Generator: Sketch 55.2 (78181) - https://sketchapp.com -->
    <title>Oval-17</title>
    <desc>Created with Sketch.</desc>
    <g id="Setup-screens" stroke="none" stroke-width="1" fill="none" fill-rule="evenodd" opacity="0.898972284">
        <g id="Setup_System-Settings" transform="translate(-917.000000, -567.000000)" fill="#000000" fill-rule="nonzero">
            <g id="Group-9" transform="translate(364.000000, 558.000000)">
                <path d="M561,25 C556.581722,25 553,21.418278 553,17 C553,12.581722 556.581722,9 561,9 C565.418278,9 569,12.581722 569,17 C569,21.418278 565.418278,25 561,25 Z M561,23 C563.143594,23 565.124356,21.8564065 566.196152,20 C567.267949,18.1435936 567.267949,15.8564064 566.196152,14 C565.124356,12.1435935 563.143594,11 561,11 C557.686292,11 555,13.6862915 555,17 C555,20.3137085 557.686292,23 561,23 Z M564.003,17.998 L560.003,17.998 L560.003,12.998 L562.003,12.998 L562.003,15.998 L564.003,15.998 L564.003,17.998 Z" id="Oval-17"></path>
            </g>
        </g>
    </g>
</svg>