<?xml version="1.0" encoding="UTF-8"?>
<svg width="16px" height="16px" viewBox="0 0 16 16" version="1.1" xmlns="http://www.w3.org/2000/svg" xmlns:xlink="http://www.w3.org/1999/xlink">
    <!-- Generator: Sketch 54 (76480) - https://sketchapp.com -->
    <title>Oval-17</title>
    <desc>Created with Sketch.</desc>
    <g id="Setup-screens" stroke="none" stroke-width="1" fill="none" fill-rule="evenodd">
        <g id="Setup_Heat-Schedule_Add-Event" transform="translate(-926.000000, -386.000000)" fill="#000000" fill-rule="nonzero">
            <g id="Group-13" transform="translate(755.000000, 0.000000)">
                <path d="M179,402 C174.581722,402 171,398.418278 171,394 C171,389.581722 174.581722,386 179,386 C183.418278,386 187,389.581722 187,394 C187,398.418278 183.418278,402 179,402 Z M179,400 C181.143594,400 183.124356,398.856406 184.196152,397 C185.267949,395.143594 185.267949,392.856406 184.196152,391 C183.124356,389.143594 181.143594,388 179,388 C175.686292,388 173,390.686292 173,394 C173,397.313708 175.686292,400 179,400 Z M182.003,394.998 L178.003,394.998 L178.003,389.998 L180.003,389.998 L180.003,392.998 L182.003,392.998 L182.003,394.998 Z" id="Oval-17"></path>
            </g>
        </g>
    </g>
</svg>